%
M48
M72
T01C0.03200
T02C0.03937
T03C0.04700
T04C0.08000
%
T01
X24200Y9760
X24200Y19760
X24200Y29760
X24200Y42760
X32200Y42760
X41200Y42760
X52200Y42760
X61200Y42760
X69200Y42760
X70200Y29760
X70200Y19760
X70200Y9760
X79200Y42760
X79200Y82760
X66200Y88760
X66200Y98760
X52200Y82760
X41200Y82760
X14200Y82760
X14200Y42760
T02
X67200Y110760
X67200Y120760
T03
X35200Y109260
X15200Y109260
T04
X8200Y8760
X85200Y8760
X85200Y133760
X8200Y133760
M30
